<svg version="1.2" xmlns="http://www.w3.org/2000/svg" viewBox="0 0 512 512" width="512" height="512">
	<title>favicon-svg</title>
	<style>
		.s0 { fill: #ffffff } 
		.s1 { fill: #000000 } 
	</style>
	<g id="SVGRepo_bgCarrier">
		<path id="Layer" class="s0" d="m41 256.4c0-119 96.4-215.4 215.4-215.4 119 0 215.4 96.4 215.4 215.4 0 119-96.4 215.4-215.4 215.4-119 0-215.4-96.4-215.4-215.4z"/>
	</g>
	<g id="SVGRepo_tracerCarrier">
	</g>
	<g id="SVGRepo_iconCarrier">
		<path id="Layer" fill-rule="evenodd" class="s1" d="m256 512c-141.6 0-256-114.4-256-256 0-141.6 114.4-256 256-256 141.6 0 256 114.4 256 256 0 141.6-114.4 256-256 256zm147.7-221.5c0-30.5-22.4-46.7-45.2-52.2q-2.9-0.7-5.6-2.2-2.7-1.5-4.8-3.7-2.2-2.2-3.6-4.9-1.5-2.7-2.2-5.7c-10.2-46.4-45.5-74.1-86.3-74.1-39.8 0-66.4 26.1-76.8 53.6q-0.5 1.2-1.3 2.3-0.7 1-1.7 1.8-1 0.8-2.2 1.4-1.2 0.5-2.4 0.7c-34.1 5.3-62.6 27.8-63.2 66.8-0.7 38.8 31.3 70.3 70.1 70.3h163.7c33.8 0 61.5-16.9 61.5-54.1z"/>
	</g>
</svg>